# xmcd
#
# Track frame offsets:
#	150
#	11042
#	23747
#	36377
#	48200
#	59187
#	72867
#	84277
#	96505
#	109815
#	124462
#	136667
#
# Disc length: 1970 seconds
#
# Revision: 0
# Processed by: cddbd v1.4PL0 Copyright (c) Steve Scherf et al.
# Submitted via: dBpowerAMP V4.0
#
DISCID=a707b00c
DTITLE=Louvin Brothers - Nearer My God To Thee
DYEAR=2002
DGENRE=Country
TTITLE0=Are You Washed In The Blood?
TTITLE1=Nearer My God To Thee
TTITLE2=Wait A Little Longer Please Jesus
TTITLE3=I Can't Say No
TTITLE4=I Won't Have To Cross Jordan Alone
TTITLE5=There's No Excuse
TTITLE6=This Little Light Of Mine
TTITLE7=Praying
TTITLE8=Thankful
TTITLE9=Lord I'm Coming Home
TTITLE10=Last Chance To Pray
TTITLE11=I Steal Away And Pray
EXTD=Released by EMI and King Records 2002.  Copyright Capitol Nashville 1957.
EXTT0=
EXTT1=
EXTT2=
EXTT3=
EXTT4=
EXTT5=
EXTT6=
EXTT7=
EXTT8=
EXTT9=
EXTT10=
EXTT11=
PLAYORDER=
